<?xml version="1.0" encoding="utf-8"?>
<!-- Generator: Adobe Illustrator 14.0.0, SVG Export Plug-In . SVG Version: 6.00 Build 43363)  -->
<!DOCTYPE svg PUBLIC "-//W3C//DTD SVG 1.1//EN" "http://www.w3.org/Graphics/SVG/1.1/DTD/svg11.dtd">
<svg version="1.1" id="Capa_1" xmlns="http://www.w3.org/2000/svg" xmlns:xlink="http://www.w3.org/1999/xlink" x="0px" y="0px"
	 width="595.28px" height="841.89px" viewBox="0 0 595.28 841.89" enable-background="new 0 0 595.28 841.89" xml:space="preserve">
<g id="XMLID_2_">
	<g>
		<path fill="#7ACDEF" d="M292.47,578.21c-12.78,21.85-22.84,45.61-34.49,68.42l-7.23,13.351c-12.56,25.399-25.8,57.47-37.57,79.359
			c-1.87,3.49-11.25,25.91-15.19,26.391c-1.65,0.199-5.04-4.551-8.21-8.261c-8.85-10.37-26.08-29.13-35.82-45.2
			c23.7-46.119,46.33-92.71,70.09-139.069c22.23,3.7,45.41,5.3,68.42,2.78C292.47,576.96,292.47,577.59,292.47,578.21z"/>
		<path fill="#7ACDEF" d="M564.82,660.11c-22.86,4.689-47.511,8.909-71.261,11.83c-24.04-45.08-53.39-87.66-77.88-132.671
			c19.471-9.77,35.58-25.77,50.9-40.609C500.54,550.9,533.28,606.66,564.82,660.11z"/>
		<path fill="#7ACDEF" d="M519.98,332.9c9.92,39.81-0.841,84-28.921,113.47c-26.1-12.71-51.369-27.7-77.319-41.72
			c17.99-19.19,21.979-46.29,17.8-71.75C461.02,333,490.57,331.35,519.98,332.9z"/>
		<path fill="#7ACDEF" d="M487.72,213.86c31.08,30.3,40.66,76.81,32.261,119.04c-29.41-1.55-58.961,0.1-88.44,0
			c5.11-26.25-3.32-52.58-20.03-72.87C436.16,243.56,462.11,228.88,487.72,213.86z"/>
		<path fill="#7ACDEF" d="M491.06,446.37c-3,19.76-14.38,35.88-24.479,52.29c-15.32,14.84-31.43,30.84-50.9,40.609
			c-3.34-0.67-5.939,1.511-9.17,1.671c-15.24-24.99-28.569-52.101-45.06-76.21c0-0.37,0-0.74,0-1.11
			c26.78-7.7,46.24-32.51,52.29-58.97C439.69,418.67,464.96,433.66,491.06,446.37z"/>
		<path fill="#7ACDEF" d="M487.72,213.86c-25.609,15.02-51.56,29.7-76.21,46.17c-8.46-25.43-29.43-47.92-56.18-53.96
			c13.15-27.07,27.04-52.83,40.05-78.99C437.69,136,476.76,172.18,487.72,213.86z"/>
		<path fill="#7ACDEF" d="M438.32,708.48c-7.511,15.22-17.79,29.359-24.88,39.76c-1.841,2.7-10.99,18.76-14.351,18.609
			c-2.43-0.1-8.58-14.069-9.02-14.909c-28.88-55.87-71.59-128.091-97.6-173.73c0-0.62,0-1.25,0-2.229
			c0.19-0.181,0.37-0.37,0.56-0.551c23.15,6.13,47.55,1.82,69.9-3.899C387.3,617.51,414.08,662.6,438.32,708.48z"/>
		<path fill="#7ACDEF" d="M406.51,540.94c-11.319,14.13-28.18,22.76-43.58,30.59c-22.35,5.72-46.75,10.029-69.9,3.899
			c0.73-29.93-1.88-60.29-1.11-90.12c25.47,5.721,51.43-1.89,69.53-20.579C377.94,488.84,391.27,515.95,406.51,540.94z"/>
		<path fill="#7ACDEF" d="M395.38,127.08c-13.01,26.16-26.899,51.92-40.05,78.99c-18.63-16.85-44.97-22.33-69.53-18.36
			c-2.31-29.33-1.84-59.26-2.78-88.44C321.41,88.75,369.63,93.82,395.38,127.08z"/>
		<path fill="#7ACDEF" d="M345.32,333.45c1.18,10.49-0.08,21.09-6.12,30.04c-16.29-8.92-31.87-18.6-48.77-25.77
			c-0.25-0.74-0.55-1.48-0.8-2.23c-0.33-0.98-0.55-1.98-0.38-3.04c0.35-0.09,0.7-0.17,1.05-0.26c0.93,0.52,2.44,0.62,3.84,0.71
			C311.06,334.18,328.28,333.09,345.32,333.45z"/>
		<path fill="#7ACDEF" d="M336.97,305.64c5.86,8.49,8.21,17.56,8.351,27.81c-17.04-0.36-34.261,0.73-51.18-0.55
			C306.83,322.21,322.83,315.05,336.97,305.64z"/>
		<path fill="#7ACDEF" d="M339.2,363.49c-4.141,10.29-12.94,17.62-22.25,23.36c-6.92-13.92-17.76-27.08-23.75-41.19
			c-1.1-2.61-2.05-5.25-2.77-7.94C307.33,344.89,322.91,354.57,339.2,363.49z"/>
		<path fill="#7ACDEF" d="M314.72,284.5c10.181,3.16,17.04,12.28,22.25,21.14c-14.14,9.41-30.14,16.57-42.83,27.26
			c-1.4-0.09-2.91-0.19-3.84-0.71c0.34-1.27,0.62-2.57,0.78-3.46C299.91,314.71,306.89,299.42,314.72,284.5z"/>
		<path fill="#7ACDEF" d="M316.95,386.85c-7.67,6.68-17.41,8.29-27.26,8.35c-0.37-0.37-0.74-0.74-1.11-1.11
			c0.51-15.77-1.32-31.85-0.56-47.84l5.18-0.59C299.19,359.77,310.03,372.93,316.95,386.85z"/>
		<path fill="#7ACDEF" d="M314.72,284.5c-7.83,14.92-14.81,30.21-23.64,44.23c-4.25-15.45-1.35-34.69-3.61-51.46
			c0.18-0.18,0.37-0.37,0.55-0.56C297.6,275.45,307.72,277.41,314.72,284.5z"/>
		<path fill="#7ACDEF" d="M293.2,345.66l-5.18,0.59c-0.76,15.99,1.07,32.07,0.56,47.84c-10.22,1.9-20.52-0.71-28.93-6.68
			c7.38-17.17,20.52-32.55,24.73-50.35l5.25-1.57c0.25,0.75,0.55,1.49,0.8,2.23C291.15,340.41,292.1,343.05,293.2,345.66z"/>
		<path fill="#7ACDEF" d="M291.92,485.31c-0.77,29.83,1.84,60.19,1.11,90.12c-0.19,0.181-0.37,0.37-0.56,0.551
			c-23.01,2.52-46.19,0.92-68.42-2.78c-16.72-7.84-35.44-14.141-47.84-28.92c14.43-25.681,26.84-53.13,42.28-77.88
			c17.11,20.34,48.33,28.09,72.31,17.8C291.17,484.57,291.55,484.94,291.92,485.31z"/>
		<path fill="#7ACDEF" d="M291.08,328.73c-0.16,0.89-0.44,2.19-0.78,3.46c-0.35,0.09-0.7,0.17-1.05,0.26
			c-1.02-0.71-2.38-1.34-3.27-1.41c-7.79-15.55-18.59-29.36-28-44.31c0-0.37,0-0.74,0-1.12c8.23-6.37,18.93-10.48,29.49-8.34
			C289.73,294.04,286.83,313.28,291.08,328.73z"/>
		<path fill="#7ACDEF" d="M289.63,335.49l-5.25,1.57c-15.7,8.07-31.46,18.36-46.42,28.66c-0.37,0-0.74,0-1.11,0
			c-6.75-8.75-7.31-19.76-6.68-30.6c16.88-3.15,34.94,1.3,51.29-2.89c1.41,0.1,3.17-0.35,4.52-1.19c0.89,0.07,2.25,0.7,3.27,1.41
			C289.08,333.51,289.3,334.51,289.63,335.49z"/>
		<path fill="#7ACDEF" d="M285.8,187.71c-0.28,0.28-0.56,0.56-0.84,0.84c-27.21-12.87-58.07,1.8-76.48,23.08
			c-15.78-24.09-32.52-47.52-46.73-72.31c26.84-38.54,77.4-49.91,121.27-40.05C283.96,128.45,283.49,158.38,285.8,187.71z"/>
		<path fill="#7ACDEF" d="M285.98,331.04c-1.35,0.84-3.11,1.29-4.52,1.19c-13.34-10.28-30.09-15.51-44.61-24.36c0-0.1,0-0.19,0-0.28
			c3.31-9.92,10.92-18.16,21.13-20.86C267.39,301.68,278.19,315.49,285.98,331.04z"/>
		<path fill="#7ACDEF" d="M284.38,337.06c-4.21,17.8-17.35,33.18-24.73,50.35c-9.6-4.19-18.85-11.24-21.69-21.69
			C252.92,355.42,268.68,345.13,284.38,337.06z"/>
		<path fill="#7ACDEF" d="M281.46,332.23c-16.35,4.19-34.41-0.26-51.29,2.89c-0.2-0.17-0.39-0.35-0.55-0.55
			c-1.87-9.64,0.96-19.5,7.23-26.7C251.37,316.72,268.12,321.95,281.46,332.23z"/>
		<path fill="#7ACDEF" d="M218.49,464.17c0,0.75,0,1.49,0,2.23c-15.44,24.75-27.85,52.199-42.28,77.88
			c-2.62-0.49-5.07-2.63-7.78-1.12c-19.45-10.21-37.76-23.641-53.13-40.33c-8.38-14.17-19.23-27.83-22.53-44.22
			c23.41-15.591,46.73-31.051,70.65-45.89C168.34,439.21,192.53,459.6,218.49,464.17z"/>
		<path fill="#7ACDEF" d="M161.75,139.32c14.21,24.79,30.95,48.22,46.73,72.31c-26.72,5.82-43.8,31.33-49.62,56.3
			c-26.63-12.41-52.39-26.06-78.32-39.61C90.72,188.33,123.31,154.6,161.75,139.32z"/>
		<path fill="#7ACDEF" d="M163.42,412.44c0,0.1,0,0.19,0,0.28c-23.92,14.839-47.24,30.299-70.65,45.89
			C62.54,427.53,44.98,382.07,56.06,339.57c29.26-1.17,58.58-1.68,87.89-2.22C135.55,363.36,142.11,394.27,163.42,412.44z"/>
		<path fill="#7ACDEF" d="M158.86,267.93c0.06,0.34,0.09,0.8,0.11,1.28c-17.13,18.18-21.89,44.31-15.02,68.14
			c-29.31,0.54-58.63,1.05-87.89,2.22c-10.21-38.43-1.62-82.01,24.48-111.25C106.47,241.87,132.23,255.52,158.86,267.93z"/>
		<path fill="#7ACDEF" d="M115.3,502.83c15.37,16.689,33.68,30.12,53.13,40.33c-22.14,46.47-47.43,93.31-68.98,141.29
			c-24.2-0.141-49-2.12-73.04-4.601C54.38,620.23,84.72,561.93,115.3,502.83z"/>
	</g>
	<g>
		<path fill="none" stroke="#F6F6F6" stroke-width="4" stroke-linecap="round" d="M294.14,332.9c16.919,1.28,34.14,0.19,51.18,0.55"
			/>
		<path fill="none" stroke="#F6F6F6" stroke-width="4" stroke-linecap="round" d="M345.32,333.45c28.729,0.03,57.6-1.15,86.22-0.55"
			/>
		<path fill="none" stroke="#F6F6F6" stroke-width="4" stroke-linecap="round" d="M413.74,404.65
			c17.99-19.19,21.979-46.29,17.8-71.75"/>
		<path fill="none" stroke="#F6F6F6" stroke-width="4" stroke-linecap="round" d="M339.2,363.49c6.04-8.95,7.3-19.55,6.12-30.04"/>
		<path fill="none" stroke="#F6F6F6" stroke-width="4" stroke-linecap="round" d="M290.3,332.19c0.93,0.52,2.44,0.62,3.84,0.71"/>
		<path fill="none" stroke="#F6F6F6" stroke-width="4" stroke-linecap="round" d="M291.08,328.73c-0.16,0.89-0.44,2.19-0.78,3.46"/>
		<path fill="none" stroke="#F6F6F6" stroke-width="4" stroke-linecap="round" d="M336.97,305.64
			c-14.14,9.41-30.14,16.57-42.83,27.26"/>
		<path fill="none" stroke="#F6F6F6" stroke-width="4" stroke-linecap="round" d="M314.72,284.5
			c-7.83,14.92-14.81,30.21-23.64,44.23"/>
		<path fill="none" stroke="#F6F6F6" stroke-width="4" stroke-linecap="round" d="M491.06,446.37
			c-26.1-12.71-51.369-27.7-77.319-41.72"/>
		<path fill="none" stroke="#F6F6F6" stroke-width="4" stroke-linecap="round" d="M336.97,305.64c5.86,8.49,8.21,17.56,8.351,27.81"
			/>
		<path fill="none" stroke="#F6F6F6" stroke-width="4" stroke-linecap="round" d="M413.74,404.65
			c-24.86-13.82-49.34-27.83-74.54-41.16"/>
		<path fill="none" stroke="#F6F6F6" stroke-width="4" stroke-linecap="round" d="M466.58,498.66
			c-15.32,14.84-31.43,30.84-50.9,40.609"/>
		<path fill="none" stroke="#F6F6F6" stroke-width="4" stroke-linecap="round" d="M466.58,498.66
			c10.1-16.41,21.479-32.53,24.479-52.29"/>
		<path fill="none" stroke="#F6F6F6" stroke-width="4" stroke-linecap="round" d="M289.25,332.45c0.35-0.09,0.7-0.17,1.05-0.26"/>
		<path fill="none" stroke="#F6F6F6" stroke-width="4" stroke-linecap="round" d="M287.47,277.27c2.26,16.77-0.64,36.01,3.61,51.46"
			/>
		<path fill="none" stroke="#F6F6F6" stroke-width="4" stroke-linecap="round" d="M314.72,284.5
			c10.181,3.16,17.04,12.28,22.25,21.14"/>
		<path fill="none" stroke="#F6F6F6" stroke-width="4" stroke-linecap="round" d="M288.02,276.71c9.58-1.26,19.7,0.7,26.7,7.79"/>
		<path fill="none" stroke="#F6F6F6" stroke-width="4" stroke-linecap="round" d="M288.02,276.71c-0.18,0.19-0.37,0.38-0.55,0.56"/>
		<path fill="none" stroke="#F6F6F6" stroke-width="4" stroke-linecap="round" d="M519.98,332.9c9.92,39.81-0.841,84-28.921,113.47"
			/>
		<path fill="none" stroke="#F6F6F6" stroke-width="4" stroke-linecap="round" d="M519.98,332.9c-29.41-1.55-58.961,0.1-88.44,0"/>
		<path fill="none" stroke="#F6F6F6" stroke-width="4" stroke-linecap="round" d="M411.51,260.03
			c16.71,20.29,25.141,46.62,20.03,72.87"/>
		<path fill="none" stroke="#F6F6F6" stroke-width="4" stroke-linecap="round" d="M411.51,260.03
			c-25.479,14.08-49.68,30.25-74.54,45.61"/>
		<path fill="none" stroke="#F6F6F6" stroke-width="4" stroke-linecap="round" d="M361.45,463.62c26.78-7.7,46.24-32.51,52.29-58.97
			"/>
		<path fill="none" stroke="#F6F6F6" stroke-width="4" stroke-linecap="round" d="M316.95,386.85
			c15.45,25.43,30.22,50.91,44.5,76.77"/>
		<path fill="none" stroke="#F6F6F6" stroke-width="4" stroke-linecap="round" d="M316.95,386.85
			c9.31-5.74,18.109-13.07,22.25-23.36"/>
		<path fill="none" stroke="#F6F6F6" stroke-width="4" stroke-linecap="round" d="M290.43,337.72c-0.25-0.74-0.55-1.48-0.8-2.23
			c-0.33-0.98-0.55-1.98-0.38-3.04"/>
		<path fill="none" stroke="#F6F6F6" stroke-width="4" stroke-linecap="round" d="M290.43,337.72c16.9,7.17,32.48,16.85,48.77,25.77
			"/>
		<path fill="none" stroke="#F6F6F6" stroke-width="4" stroke-linecap="round" d="M406.51,540.94c3.23-0.16,5.83-2.341,9.17-1.671"
			/>
		<path fill="none" stroke="#F6F6F6" stroke-width="4" stroke-linecap="round" d="M493.56,671.94
			c-24.04-45.08-53.39-87.66-77.88-132.671"/>
		<path fill="none" stroke="#F6F6F6" stroke-width="4" stroke-linecap="round" d="M493.56,671.94
			c23.75-2.921,48.4-7.141,71.261-11.83c-31.54-53.45-64.28-109.21-98.24-161.45"/>
		<path fill="none" stroke="#F6F6F6" stroke-width="4" stroke-linecap="round" d="M285.98,331.04c0.89,0.07,2.25,0.7,3.27,1.41"/>
		<path fill="none" stroke="#F6F6F6" stroke-width="4" stroke-linecap="round" d="M257.98,285.61c8.23-6.37,18.93-10.48,29.49-8.34"
			/>
		<path fill="none" stroke="#F6F6F6" stroke-width="4" stroke-linecap="round" d="M355.33,206.07
			c-13.68,25.92-26.17,52.64-40.61,78.43"/>
		<path fill="none" stroke="#F6F6F6" stroke-width="4" stroke-linecap="round" d="M284.96,188.55c1.36,29.35,2.08,58.83,3.06,88.16"
			/>
		<path fill="none" stroke="#F6F6F6" stroke-width="4" stroke-linecap="round" d="M487.72,213.86
			c31.08,30.3,40.66,76.81,32.261,119.04"/>
		<path fill="none" stroke="#F6F6F6" stroke-width="4" stroke-linecap="round" d="M487.72,213.86
			c-25.609,15.02-51.56,29.7-76.21,46.17"/>
		<path fill="none" stroke="#F6F6F6" stroke-width="4" stroke-linecap="round" d="M355.33,206.07
			c26.75,6.04,47.72,28.53,56.18,53.96"/>
		<path fill="none" stroke="#F6F6F6" stroke-width="4" stroke-linecap="round" d="M257.98,286.73c9.41,14.95,20.21,28.76,28,44.31"
			/>
		<path fill="none" stroke="#F6F6F6" stroke-width="4" stroke-linecap="round" d="M257.98,286.73c0-0.37,0-0.74,0-1.12"/>
		<path fill="none" stroke="#F6F6F6" stroke-width="4" stroke-linecap="round" d="M361.45,464.73
			c16.49,24.109,29.819,51.22,45.06,76.21"/>
		<path fill="none" stroke="#F6F6F6" stroke-width="4" stroke-linecap="round" d="M361.45,464.73c0-0.37,0-0.74,0-1.11"/>
		<path fill="none" stroke="#F6F6F6" stroke-width="4" stroke-linecap="round" d="M316.95,386.85
			c-6.92-13.92-17.76-27.08-23.75-41.19c-1.1-2.61-2.05-5.25-2.77-7.94"/>
		<path fill="none" stroke="#F6F6F6" stroke-width="4" stroke-linecap="round" d="M362.93,571.53
			c15.4-7.83,32.261-16.46,43.58-30.59"/>
		<path fill="none" stroke="#F6F6F6" stroke-width="4" stroke-linecap="round" d="M438.32,708.48
			C414.08,662.6,387.3,617.51,362.93,571.53"/>
		<path fill="none" stroke="#F6F6F6" stroke-width="4" stroke-linecap="round" d="M438.32,708.48
			c10.85-9.86,12.569-20.7,20.71-28.08c7.31-6.631,22.96-4.49,34.529-8.46"/>
		<path fill="none" stroke="#F6F6F6" stroke-width="4" stroke-linecap="round" d="M281.46,332.23c1.41,0.1,3.17-0.35,4.52-1.19"/>
		<path fill="none" stroke="#F6F6F6" stroke-width="4" stroke-linecap="round" d="M288.58,394.09c0.51-15.77-1.32-31.85-0.56-47.84"
			/>
		<path fill="none" stroke="#F6F6F6" stroke-width="4" stroke-linecap="round" d="M208.48,211.63
			c18.41-21.28,49.27-35.95,76.48-23.08"/>
		<path fill="none" stroke="#F6F6F6" stroke-width="4" stroke-linecap="round" d="M208.48,211.63
			c16.51,24.82,32.01,50.19,49.5,73.98"/>
		<path fill="none" stroke="#F6F6F6" stroke-width="4" stroke-linecap="round" d="M285.8,187.71c24.561-3.97,50.9,1.51,69.53,18.36"
			/>
		<path fill="none" stroke="#F6F6F6" stroke-width="4" stroke-linecap="round" d="M285.8,187.71c-0.28,0.28-0.56,0.56-0.84,0.84"/>
		<path fill="none" stroke="#F6F6F6" stroke-width="4" stroke-linecap="round" d="M395.38,127.08
			c42.311,8.92,81.38,45.1,92.34,86.78"/>
		<path fill="none" stroke="#F6F6F6" stroke-width="4" stroke-linecap="round" d="M395.38,127.08
			c-13.01,26.16-26.899,51.92-40.05,78.99"/>
		<path fill="none" stroke="#F6F6F6" stroke-width="4" stroke-linecap="round" d="M236.85,307.59c3.31-9.92,10.92-18.16,21.13-20.86
			"/>
		<path fill="none" stroke="#F6F6F6" stroke-width="4" stroke-linecap="round" d="M236.85,307.87c0-0.1,0-0.19,0-0.28"/>
		<path fill="none" stroke="#F6F6F6" stroke-width="4" stroke-linecap="round" d="M236.85,307.87
			c14.52,8.85,31.27,14.08,44.61,24.36"/>
		<path fill="none" stroke="#F6F6F6" stroke-width="4" stroke-linecap="round" d="M291.92,485.31
			c25.47,5.721,51.43-1.89,69.53-20.579"/>
		<path fill="none" stroke="#F6F6F6" stroke-width="4" stroke-linecap="round" d="M289.69,395.2c-0.37-0.37-0.74-0.74-1.11-1.11"/>
		<path fill="none" stroke="#F6F6F6" stroke-width="4" stroke-linecap="round" d="M289.69,395.2c9.85-0.06,19.59-1.67,27.26-8.35"/>
		<path fill="none" stroke="#F6F6F6" stroke-width="4" stroke-linecap="round" d="M293.03,575.43c23.15,6.13,47.55,1.82,69.9-3.899"
			/>
		<path fill="none" stroke="#F6F6F6" stroke-width="4" stroke-linecap="round" d="M293.03,575.43c0.73-29.93-1.88-60.29-1.11-90.12"
			/>
		<path fill="none" stroke="#F6F6F6" stroke-width="4" stroke-linecap="round" d="M292.47,578.21
			c26.01,45.64,68.72,117.86,97.6,173.73c0.439,0.84,6.59,14.81,9.02,14.909c3.36,0.15,12.51-15.909,14.351-18.609
			c7.09-10.4,17.369-24.54,24.88-39.76"/>
		<path fill="none" stroke="#F6F6F6" stroke-width="4" stroke-linecap="round" d="M230.17,335.12c16.88-3.15,34.94,1.3,51.29-2.89"
			/>
		<path fill="none" stroke="#F6F6F6" stroke-width="4" stroke-linecap="round" d="M259.65,387.41c8.41,5.97,18.71,8.58,28.93,6.68"
			/>
		<path fill="none" stroke="#F6F6F6" stroke-width="4" stroke-linecap="round" d="M237.96,365.72
			c14.96-10.3,30.72-20.59,46.42-28.66c-4.21,17.8-17.35,33.18-24.73,50.35"/>
		<path fill="none" stroke="#F6F6F6" stroke-width="4" stroke-linecap="round" d="M283.02,99.27c0.94,29.18,0.47,59.11,2.78,88.44"
			/>
		<path fill="none" stroke="#F6F6F6" stroke-width="4" stroke-linecap="round" d="M283.02,99.27
			c38.39-10.52,86.61-5.45,112.36,27.81"/>
		<path fill="none" stroke="#F6F6F6" stroke-width="4" stroke-linecap="round" d="M158.97,269.21
			c26.31,12.41,51.72,26.17,77.88,38.38"/>
		<path fill="none" stroke="#F6F6F6" stroke-width="4" stroke-linecap="round" d="M229.62,334.57c-1.87-9.64,0.96-19.5,7.23-26.7"/>
		<path fill="none" stroke="#F6F6F6" stroke-width="4" stroke-linecap="round" d="M229.62,334.57c0.16,0.2,0.35,0.38,0.55,0.55"/>
		<path fill="none" stroke="#F6F6F6" stroke-width="4" stroke-linecap="round" d="M290.8,484.2c0.37,0.37,0.75,0.74,1.12,1.109"/>
		<path fill="none" stroke="#F6F6F6" stroke-width="4" stroke-linecap="round" d="M290.8,484.2c1.49-29.66-3.09-59.311-1.11-89"/>
		<path fill="none" stroke="#F6F6F6" stroke-width="4" stroke-linecap="round" d="M292.47,575.98c0.19-0.181,0.37-0.37,0.56-0.551"
			/>
		<path fill="none" stroke="#F6F6F6" stroke-width="4" stroke-linecap="round" d="M292.47,575.98c0,0.979,0,1.609,0,2.229"/>
		<path fill="none" stroke="#F6F6F6" stroke-width="4" stroke-linecap="round" d="M236.85,365.72c0.37,0,0.74,0,1.11,0"/>
		<path fill="none" stroke="#F6F6F6" stroke-width="4" stroke-linecap="round" d="M236.85,365.72c-6.75-8.75-7.31-19.76-6.68-30.6"
			/>
		<path fill="none" stroke="#F6F6F6" stroke-width="4" stroke-linecap="round" d="M259.65,387.41c-9.6-4.19-18.85-11.24-21.69-21.69
			"/>
		<path fill="none" stroke="#F6F6F6" stroke-width="4" stroke-linecap="round" d="M158.86,267.93c5.82-24.97,22.9-50.48,49.62-56.3"
			/>
		<path fill="none" stroke="#F6F6F6" stroke-width="4" stroke-linecap="round" d="M158.86,267.93c0.06,0.34,0.09,0.8,0.11,1.28"/>
		<path fill="none" stroke="#F6F6F6" stroke-width="4" stroke-linecap="round" d="M161.75,139.32
			c14.21,24.79,30.95,48.22,46.73,72.31"/>
		<path fill="none" stroke="#F6F6F6" stroke-width="4" stroke-linecap="round" d="M161.75,139.32
			c26.84-38.54,77.4-49.91,121.27-40.05"/>
		<path fill="none" stroke="#F6F6F6" stroke-width="4" stroke-linecap="round" d="M143.95,337.35
			c-6.87-23.83-2.11-49.96,15.02-68.14"/>
		<path fill="none" stroke="#F6F6F6" stroke-width="4" stroke-linecap="round" d="M143.95,337.35c28.49-1.94,57.15-1.32,85.67-2.78"
			/>
		<path fill="none" stroke="#F6F6F6" stroke-width="4" stroke-linecap="round" d="M218.49,466.4c17.11,20.34,48.33,28.09,72.31,17.8
			"/>
		<path fill="none" stroke="#F6F6F6" stroke-width="4" stroke-linecap="round" d="M224.05,573.2c22.23,3.7,45.41,5.3,68.42,2.78"/>
		<path fill="none" stroke="#F6F6F6" stroke-width="4" stroke-linecap="round" d="M163.42,412.44
			c24.62-15.58,49.09-30.77,73.43-46.72"/>
		<path fill="none" stroke="#F6F6F6" stroke-width="4" stroke-linecap="round" d="M218.49,464.17
			c13.75-25.75,27.04-51.62,41.16-76.76"/>
		<path fill="none" stroke="#F6F6F6" stroke-width="4" stroke-linecap="round" d="M218.49,464.17c0,0.75,0,1.49,0,2.23"/>
		<path fill="none" stroke="#F6F6F6" stroke-width="4" stroke-linecap="round" d="M80.54,228.32c25.93,13.55,51.69,27.2,78.32,39.61
			"/>
		<path fill="none" stroke="#F6F6F6" stroke-width="4" stroke-linecap="round" d="M80.54,228.32c10.18-39.99,42.77-73.72,81.21-89"
			/>
		<path fill="none" stroke="#F6F6F6" stroke-width="4" stroke-linecap="round" d="M143.95,337.35c-8.4,26.01-1.84,56.92,19.47,75.09
			"/>
		<path fill="none" stroke="#F6F6F6" stroke-width="4" stroke-linecap="round" d="M176.21,544.28
			c14.43-25.681,26.84-53.13,42.28-77.88"/>
		<path fill="none" stroke="#F6F6F6" stroke-width="4" stroke-linecap="round" d="M176.21,544.28
			c12.4,14.779,31.12,21.08,47.84,28.92"/>
		<path fill="none" stroke="#F6F6F6" stroke-width="4" stroke-linecap="round" d="M153.96,712.27c9.74,16.07,26.97,34.83,35.82,45.2
			c3.17,3.71,6.56,8.46,8.21,8.261c3.94-0.48,13.32-22.9,15.19-26.391c11.77-21.89,25.01-53.96,37.57-79.359l7.23-13.351
			c11.65-22.81,21.71-46.57,34.49-68.42"/>
		<path fill="none" stroke="#F6F6F6" stroke-width="4" stroke-linecap="round" d="M153.96,712.27
			c23.7-46.119,46.33-92.71,70.09-139.069"/>
		<path fill="none" stroke="#F6F6F6" stroke-width="4" stroke-linecap="round" d="M163.42,412.72c0-0.09,0-0.18,0-0.28"/>
		<path fill="none" stroke="#F6F6F6" stroke-width="4" stroke-linecap="round" d="M163.42,412.72
			c4.92,26.49,29.11,46.879,55.07,51.45"/>
		<path fill="none" stroke="#F6F6F6" stroke-width="4" stroke-linecap="round" d="M56.06,339.57
			c-10.21-38.43-1.62-82.01,24.48-111.25"/>
		<path fill="none" stroke="#F6F6F6" stroke-width="4" stroke-linecap="round" d="M56.06,339.57c29.26-1.17,58.58-1.68,87.89-2.22"
			/>
		<path fill="none" stroke="#F6F6F6" stroke-width="4" stroke-linecap="round" d="M168.43,543.16c2.71-1.51,5.16,0.63,7.78,1.12"/>
		<path fill="none" stroke="#F6F6F6" stroke-width="4" stroke-linecap="round" d="M99.45,684.45
			c21.55-47.98,46.84-94.82,68.98-141.29"/>
		<path fill="none" stroke="#F6F6F6" stroke-width="4" stroke-linecap="round" d="M99.45,684.45c19.52,3.09,29.01-1.04,39.16,9.609
			c4.85,5.091,7.42,12.091,15.35,18.21"/>
		<path fill="none" stroke="#F6F6F6" stroke-width="4" stroke-linecap="round" d="M92.77,458.61
			c23.41-15.591,46.73-31.051,70.65-45.89"/>
		<path fill="none" stroke="#F6F6F6" stroke-width="4" stroke-linecap="round" d="M92.77,458.61
			C62.54,427.53,44.98,382.07,56.06,339.57"/>
		<path fill="none" stroke="#F6F6F6" stroke-width="4" stroke-linecap="round" d="M115.3,502.83
			c15.37,16.689,33.68,30.12,53.13,40.33"/>
		<path fill="none" stroke="#F6F6F6" stroke-width="4" stroke-linecap="round" d="M115.3,502.83
			c-30.58,59.1-60.92,117.4-88.89,177.02c24.04,2.48,48.84,4.46,73.04,4.601"/>
		<path fill="none" stroke="#F6F6F6" stroke-width="4" stroke-linecap="round" d="M115.3,502.83
			c-8.38-14.17-19.23-27.83-22.53-44.22"/>
	</g>
</g>
</svg>
